<svg height="512" viewBox="0 0 512 512" width="512" xmlns="http://www.w3.org/2000/svg"><g><g><path d="m440 416h-48a8 8 0 0 1 0-16h35.5l-42.761-92.647a8 8 0 1 1 14.528-6.706l48 104a8 8 0 0 1 -7.267 11.353z" fill="#dae3e8"/><path d="m163.891 339.1c1.181-7.715 9.381-12.919 17.185-12.885s15.035 4.156 21.068 9.106 11.284 10.837 17.593 15.431l-3.737 9.248h-48z" fill="#415618"/><g><path d="m185.57 326.676a23.564 23.564 0 0 0 -4.494-.466c-7.8-.034-16 5.17-17.184 12.885l1.225 6.238a33.573 33.573 0 0 1 20.453-18.657z" fill="#dff1fc"/><path d="m185.541 333.553a21.178 21.178 0 0 1 11.853-1.75 33.86 33.86 0 0 0 -11.824-5.127 33.573 33.573 0 0 0 -20.453 18.657l2.883 14.667h1.124a41.526 41.526 0 0 1 3.066-12.047c2.666-6.138 7.282-11.58 13.351-14.4z" fill="#333"/></g><path d="m309.7 328.68c-6.737-3.04-14.233-3.855-21.584-4.632l-41.5-4.388c-7.356-.778-14.8-1.554-22.125-.538s-14.641 4.026-19.424 9.668-6.471 14.2-2.842 20.649c2.662 4.728 7.721 7.725 12.972 9.094s10.753 1.309 16.179 1.241l54.83-.691c6.955-.088 14.007-.19 20.693-2.106 5.1-1.461 15.7-6.257 16.645-12.485 1.012-6.658-8.854-13.561-13.844-15.812z" fill="#26300a"/><path d="m256 352c-10.154 5.085-25.365 1.885-36.439-.629s-23.818-4.153-32.8 2.8c-13.436-7.506-31.1-13.61-44.535-21.117-13.751 2.451-24.965 9.834-32.085 21.85-3.854 6.5-5.992 15.462.188 20.886a13.39 13.39 0 0 0 10.01 3.027c7.373-.616 13.093-5.268 18.557-9.781a113.44 113.44 0 0 0 84.258 27.729 12.152 12.152 0 0 0 12.118 11.235h60.728a56 56 0 0 0 56-56z" fill="#354412"/><g><path d="m116.453 361.23c2.951-7.625 8.814-13.87 15.594-18.438a75.248 75.248 0 0 1 14.567-7.416c-1.5-.763-2.972-1.536-4.388-2.327-13.751 2.451-24.965 9.834-32.085 21.85-3.854 6.5-5.992 15.462.188 20.886a12.237 12.237 0 0 0 5.088 2.622 27.887 27.887 0 0 1 1.036-17.177z" fill="#dff1fc"/><path d="m136.874 352.286c1.477-6.954 6.739-13.354 13.518-15.041-1.284-.615-2.54-1.239-3.778-1.869a75.248 75.248 0 0 0 -14.567 7.416c-6.78 4.568-12.643 10.813-15.594 18.438a27.887 27.887 0 0 0 -1.036 17.177 14.881 14.881 0 0 0 4.922.405c7.217-.6 12.849-5.073 18.209-9.494-1.984-5.498-2.878-11.364-1.674-17.032z" fill="#333"/></g><path d="m193 224c-32 0-45.349 7-64 24-24-24-72-24-95.742-1.343 127.466-116.505 283.73-197.667 454.742-221.657-16.8 58.11-47.722 126.927-85.277 174.347z" fill="#ffec00"/><path d="m315.469 409.78a114.6 114.6 0 0 0 29.169-56.98l25.076-10.237a87.632 87.632 0 0 1 -11.293 39.614c8.224-2.447 17.4-3.332 25.517-.536 12.512 4.313 20.2 19.3 16.42 31.977s-18.434 21-31.262 17.743a24.053 24.053 0 0 1 -14.36-10.175 20.679 20.679 0 0 1 -2.313-17.29z" fill="#415618"/><path d="m383.938 381.645c-8.113-2.8-17.292-1.911-25.518.536.337-.593.66-1.193.982-1.793a44.9 44.9 0 0 0 -13.358 17.912 43.879 43.879 0 0 0 -2.169 6.958l8.548-1.36a20.679 20.679 0 0 0 2.313 17.29 24.053 24.053 0 0 0 14.36 10.175c12.828 3.252 27.476-5.062 31.262-17.743s-3.908-27.662-16.42-31.975z" fill="#333"/><path d="m487 25c-171.012 23.99-327.276 105.152-454.742 221.657l-.258 1.343c-.3.309-8-32-8-32 126-113 312-192 464-192z" fill="#f98800"/><path d="m376 416h-80a8 8 0 0 1 0-16h80a8 8 0 0 1 0 16z" fill="#dae3e8"/><path d="m228.635 405.425c-5.413-21.032-.683-43.556 13.378-60.108-6.307-.456-11.8-1.367-18.107-1.823a113.23 113.23 0 0 0 -6.336 58.912c4.251.57 6.814 2.449 11.065 3.019z" fill="#26300a"/><path d="m270.817 336.043c-15.227 9.373-39.483 27.969-45.559 44.786-2.231 6.173-2.836 13.291.135 19.145 3.715 7.322 12.317 11.115 20.524 11.383s16.2-2.375 23.982-4.985c-1.153 10.073 6.96 20.154 16.992 21.626s20.479-5.481 23.444-15.177-1.522-21.02-10.073-26.468-20.374-4.884-28.665.953c2-4.068 22.407-31.238 24.4-35.306z" fill="#415618"/><path d="m300.262 386.353c-8.551-5.449-20.375-4.884-28.665.953.049-.1.118-.226.19-.354a69.182 69.182 0 0 0 -17.451 23.758 106.634 106.634 0 0 0 15.562-4.338c-1.152 10.073 6.961 20.154 16.993 21.626s20.479-5.481 23.443-15.177-1.521-21.021-10.072-26.468z" fill="#333"/><path d="m280 416h-136a8 8 0 0 1 -7.761-9.94l56-224a8 8 0 0 1 7.761-6.06h64a8 8 0 0 1 0 16h-57.754l-52 208h125.754a8 8 0 0 1 0 16z" fill="#dae3e8"/><g><circle cx="319" cy="256" fill="#fad6c6" r="104"/><g><path d="m252.877 236.626c5.964-30.257 27.32-57.132 55.578-69.482a95.6 95.6 0 0 1 50.8-7.043 104.008 104.008 0 0 0 -114.463 168.774 91.872 91.872 0 0 0 25.737-14.76c-16.121-21.963-22.929-50.727-17.652-77.489z" fill="#354412"/><path d="m308.455 167.144c-28.258 12.35-49.614 39.225-55.578 69.482-5.275 26.762 1.531 55.526 17.652 77.489a89.782 89.782 0 0 0 20.388-23.357 91.294 91.294 0 0 0 10.041-68.939c37.635-5.92 74.966-9.19 112.958-8.322a103.946 103.946 0 0 0 -54.663-53.4 95.6 95.6 0 0 0 -50.798 7.047z" fill="#415618"/><path d="m277.31 322.358a94.919 94.919 0 0 1 -6.781-8.243 91.872 91.872 0 0 1 -25.737 14.76 104.046 104.046 0 0 0 107.282 25.733c-27.914.067-55.804-11.727-74.764-32.25z" fill="#333"/><path d="m331.517 235.4a620.279 620.279 0 0 1 88.224-5.224 104.16 104.16 0 0 0 -5.825-16.676c-37.992-.868-75.323 2.4-112.958 8.322a91.294 91.294 0 0 1 -10.041 68.939 89.782 89.782 0 0 1 -20.388 23.357 94.919 94.919 0 0 0 6.781 8.243c18.96 20.523 46.85 32.317 74.764 32.25a104.31 104.31 0 0 0 11.989-4.883 163.636 163.636 0 0 1 -67.553-34.217c21.941-20.292 35.196-50.231 35.007-80.111z" fill="#eaaa94"/></g><circle cx="328" cy="296" fill="#f78663" r="16"/><circle cx="408" cy="296" fill="#f78663" r="16"/><path d="m369.013 311.99q-.85 0-1.711-.078a17.273 17.273 0 0 1 -12.953-7.431 8 8 0 1 1 13.291-8.909 1.819 1.819 0 0 0 1.1.4 1.886 1.886 0 0 0 1.153-.2 8 8 0 1 1 11.483 11.141 17.089 17.089 0 0 1 -12.363 5.077z" fill="#f99c78"/><path d="m435.8 286.1a116.659 116.659 0 0 0 1.229-72.966c-48.917-1.101-100.988 1.594-149.029 10.866.3 13.636-.3 26.364 0 40 7.594 10.669 23.215 19.695 36 22.528a54.08 54.08 0 0 0 37.985-5.7c8.423-4.779 16.285-12.08 25.97-12.085 8.8 0 16.232 6.062 23.662 10.783s16.896 11.515 24.183 6.574z" fill="#23c5f7"/><g><path d="m419.741 230.173a104.16 104.16 0 0 0 -5.825-16.676c-37.992-.868-75.323 2.4-112.958 8.322a91.366 91.366 0 0 1 -2.405 52.639 72.186 72.186 0 0 0 20.8 10.8 108.317 108.317 0 0 0 12.164-49.858 620.279 620.279 0 0 1 88.224-5.227z" fill="#0bafd6"/><g><path d="m420.813 271.34c-.375 4.3-.949 8.579-1.686 12.831a40.162 40.162 0 0 0 4.382 2.157 99.3 99.3 0 0 0 6.235-11.872 48.217 48.217 0 0 1 -8.931-3.116z" fill="#8fced8"/><path d="m408.72 265.083c-7.069-3.812-14.609-7.38-22.638-7.525-12.595-.229-23.615 7.841-33.816 15.231-9.042 6.55-19.32 13.1-30.221 13.253.658.175 1.312.343 1.956.486a54.08 54.08 0 0 0 37.985-5.7c8.423-4.779 16.285-12.081 25.97-12.085 8.8 0 16.232 6.062 23.662 10.783 2.344 1.489 4.892 3.18 7.509 4.649.737-4.252 1.311-8.532 1.686-12.831-4.125-1.857-8.113-4.112-12.093-6.261z" fill="#abe2ef"/><path d="m420.813 271.34a48.217 48.217 0 0 0 8.931 3.116 102.522 102.522 0 0 0 6.818-61.331q-10.851-.238-21.89-.208 1.215 3.966 2.212 7.994c1.088 3.036 2.049 6.123 2.857 9.262-.293 0-.582 0-.874-.007a154.842 154.842 0 0 1 1.946 41.174z" fill="#168aa5"/><path d="m288 224c.3 13.636-.3 26.364 0 40a49.315 49.315 0 0 0 10.553 10.458 91.366 91.366 0 0 0 2.405-52.639c37.635-5.92 74.966-9.19 112.958-8.322 1.089 2.427 2.07 4.9 2.968 7.414q-1-4.026-2.212-7.994c-42.199.093-85.885 3.211-126.672 11.083z" fill="#23c5f7"/><path d="m437.027 213.133c-.154 0-.31-.005-.465-.008a102.522 102.522 0 0 1 -6.818 61.331 99.3 99.3 0 0 1 -6.235 11.872c4.291 1.755 8.574 2.291 12.289-.229 1.253-3.6 2.305-7.263 3.2-10.971a116.3 116.3 0 0 0 -1.971-61.995z" fill="#abe2ef"/></g></g><path d="m292.222 263.6c-31.011-.742-60.743-.934-91.754-1.676.547-9.025-.643-16.685-.1-25.71 29.532-2.836 62.287-5.744 91.819-8.581.25 11.525-.211 24.445.035 35.967z" fill="#dff1fc"/></g></g><path d="m202 488a32 32 0 0 1 -1.01 8h-181.96a48.008 48.008 0 0 1 45.27-64c1.23 0 2.44.05 3.64.14a56.007 56.007 0 0 1 101.49 23.87c.19-.01.38-.01.57-.01a32 32 0 0 1 32 32z" fill="#aedef8"/><path d="m184.99 496h-165.96a48.125 48.125 0 0 1 4.28-40.99 47.713 47.713 0 0 1 24.99-7.01c1.23 0 2.44.05 3.64.14a56.007 56.007 0 0 1 101.49 23.87c.19-.01.38-.01.57-.01a32.012 32.012 0 0 1 30.99 24z" fill="#dff1fc"/><path d="m496 426.32v69.68h-120a32.015 32.015 0 0 1 49.1-27.06 56.053 56.053 0 0 1 70.9-42.62z" fill="#dff1fc"/><path d="m496 432.57v63.43h-94.99a32.024 32.024 0 0 1 48.09-19.06 56.025 56.025 0 0 1 46.9-44.37z" fill="#aedef8"/></g></svg>