<svg height="512pt" viewBox="0 -33 512.00146 512" width="512pt" xmlns="http://www.w3.org/2000/svg"><g fill-rule="evenodd"><path d="m206.101562 280.789062 49.898438-57.738281v-213.046875l-123 213.046875-123.003906 213.046875c32.625-32.621094 76.871094-50.945312 123.003906-50.945312s90.378906 18.324218 123.003906 50.945312v-97.574218h-99.800781zm0 0" fill="#ffba4a"/><path d="m256 223.050781-49.898438 57.738281-49.898437 57.734376h99.796875zm0 0" fill="#ffba4a"/><path d="m256 223.050781 49.902344 57.738281 49.898437 57.734376h-99.800781v97.574218c32.625-32.621094 76.871094-50.945312 123.003906-50.945312 46.132813 0 90.378906 18.324218 123.003906 50.945312l-123.003906-213.046875-123-213.046875v213.046875zm0 0" fill="#fd4848"/><path d="m305.902344 280.789062-49.902344-57.738281v115.472657h99.800781zm0 0" fill="#fd4848"/></g><path d="m509.601562 442.589844c.085938-.101563.171876-.199219.25-.300782.117188-.148437.226563-.300781.335938-.457031.085938-.121093.171875-.242187.253906-.371093.085938-.132813.164063-.273438.242188-.410157.085937-.152343.171875-.300781.25-.457031.0625-.121094.117187-.246094.171875-.371094.082031-.171875.15625-.347656.226562-.523437.046875-.117188.085938-.242188.125-.363281.0625-.179688.125-.363282.175781-.546876.039063-.132812.066407-.265624.097657-.398437.039062-.171875.082031-.347656.113281-.523437.027344-.152344.046875-.308594.066406-.464844.023438-.15625.042969-.3125.058594-.46875.011719-.175782.019531-.355469.023438-.53125.003906-.140625.011718-.277344.007812-.414063 0-.191406-.011719-.382812-.027344-.570312-.007812-.128907-.011718-.257813-.027344-.386719-.019531-.1875-.050781-.375-.082031-.5625-.019531-.132812-.042969-.269531-.070312-.40625-.035157-.167969-.078125-.335938-.121094-.503906-.042969-.152344-.082031-.308594-.128906-.460938-.046875-.140625-.097657-.28125-.148438-.421875-.066406-.179687-.132812-.355469-.207031-.53125-.050781-.117187-.109375-.234375-.164062-.351562-.089844-.1875-.183594-.375-.285157-.558594-.027343-.046875-.046875-.09375-.070312-.140625l-246.007813-426.09375c-.027344-.046875-.0625-.09375-.09375-.140625-.167968-.277344-.34375-.542969-.535156-.800781-.066406-.085938-.125-.171875-.191406-.253906-.242188-.308594-.5-.605469-.773438-.882813-.019531-.015625-.039062-.03125-.058594-.050781-.261718-.257813-.539062-.496094-.824218-.722656-.085938-.066407-.179688-.132813-.265625-.199219-.246094-.179688-.5-.347657-.765625-.507813-.078125-.046875-.152344-.09375-.230469-.140625-.347656-.199219-.707031-.378906-1.082031-.53125 0-.003906-.003906-.003906-.003906-.003906-.359376-.148437-.730469-.273437-1.109376-.378906-.097656-.027344-.191406-.050781-.289062-.074219-.296875-.074219-.601562-.136719-.90625-.183594-.109375-.015625-.210938-.035156-.320312-.0468748-.394532-.0507812-.796876-.0820312-1.210938-.0820312-.410156 0-.8125.03125-1.210938.0820312-.105468.0117188-.210937.0312498-.316406.0468748-.308594.046875-.609375.109375-.90625.183594-.097656.023438-.195312.046875-.289062.074219-.378906.105469-.75.226562-1.109375.378906 0 0-.003907 0-.007813.003906-.371094.152344-.730468.335938-1.078125.53125-.078125.046875-.15625.09375-.234375.140625-.261718.160156-.515625.328125-.761718.507813-.089844.066406-.179688.132812-.265626.199219-.289062.226562-.566406.46875-.824218.722656-.019532.019531-.039063.035156-.058594.050781-.277344.277344-.53125.574219-.773438.882813-.066406.082031-.128906.167968-.191406.253906-.191406.257812-.371094.523437-.535156.800781-.03125.050781-.066406.09375-.097656.140625l-25 43.304688c-4.363282 7.558593 2.261718 18.445312 14.917968 14.160156l8.742188-15.144532v172.003907l-99.027344 114.585937c-2.929687 8.140625 2.640625 14.613282 9.230469 14.613282h89.796875v65.414062c-12.976562-10.117188-27.238281-18.417969-42.605469-24.785156-22.433593-9.292969-46.117187-14.003906-70.394531-14.003906-24.28125 0-47.964844 4.710937-70.394531 14.003906-6.675781 2.761718-13.132813 5.902344-19.378907 9.386718l161.949219-280.507812c2.761719-4.78125 1.125-10.898438-3.65625-13.660156-4.785156-2.761719-10.902343-1.121094-13.664062 3.660156l-186.519531 323.066406c-.027344.046875-.046876.09375-.070313.140625-.101563.183594-.195313.367188-.285156.558594-.058594.117187-.113281.234375-.164063.351563-.078125.175781-.140625.351562-.207031.527343-.050781.140625-.105469.28125-.148437.425781-.046876.152344-.089844.304688-.128907.457032-.042969.171875-.089843.339844-.125.507812-.027343.136719-.046875.269532-.070312.402344-.03125.1875-.058594.375-.0781252.566406-.015625.125-.0195313.253906-.03125.378906-.0117188.191407-.02343755.382813-.0273438.578126 0 .132812.00390625.269531.0078125.402343.0078125.183594.0117187.363281.0273437.542969.0117188.152344.0351563.308594.0546876.460938.0195312.15625.0390622.316406.0664062.472656.03125.171875.074219.34375.113281.515625.03125.132812.0625.269531.097657.40625.054687.179687.113281.359375.175781.539062.042969.125.082031.246094.128906.371094.066406.171875.144531.34375.21875.511719.058594.128906.113281.257812.175781.378906.078125.152344.164063.300781.246094.449219.082031.140625.164062.285156.25.421875.078125.121094.164062.242187.25.363281.109375.15625.21875.3125.335938.460937.082031.101563.164062.199219.246093.296876.136719.160156.277344.316406.425781.46875.035157.035156.066407.078124.101563.113281.054687.054687.117187.101562.171875.15625.144531.136719.289062.269531.445312.398437.121094.105469.25.203125.375.300782.125.097656.253907.191406.382813.28125.167969.117187.335937.222656.507813.328124.066406.039063.125.085938.191406.125.035156.019532.070312.03125.105468.054688.359376.199219.71875.382812 1.09375.535156 0 0 .003907.003906.007813.003906.367187.148438.738281.273438 1.117187.378907.121094.03125.238282.054687.359376.085937.261718.0625.523437.113282.789062.152344.132812.023438.265625.042969.398438.058594.332031.039062.660156.058594.992187.066406.042969 0 .085937.007812.125.007812.023437 0 .046875-.003906.066406-.003906.367188-.003906.730469-.03125 1.09375-.070312.109375-.015625.21875-.03125.328125-.050782.296875-.042968.589844-.101562.882813-.171874.09375-.023438.1875-.042969.28125-.066407.75-.207031 1.484375-.5 2.179687-.886719.097656-.050781.1875-.109374.28125-.164062.242188-.144531.476563-.300781.710938-.464844.109375-.082031.222656-.160156.328125-.242187.226562-.179688.445312-.371094.660156-.570313.082031-.074218.167969-.144531.246094-.222656l26.941406-24.269531c73.242187-40.34375 153.289063-27.402344 204.941406 24.25.234375.234375.476563.453125.734375.664062.117188.09375.242188.179688.363282.269531.136718.105469.273437.214844.421874.3125.140626.09375.292969.179688.441407.265626.128906.082031.261719.164062.394531.238281.152344.078125.308594.148437.460938.21875.140624.066406.28125.140625.425781.199219.152343.0625.304687.113281.457031.167968.15625.054688.308594.113282.464844.160156.15625.046876.308594.082032.464844.121094.160156.039063.320312.085938.484374.117188.175782.035156.355469.058594.53125.082031.148438.019531.289063.050781.4375.0625.328126.03125.65625.050781.988282.050781.328125 0 .660156-.015625.988281-.050781.148437-.015625.292969-.042969.441406-.0625.160157-.023437.320313-.039063.480469-.070313.015625-.003906.027344-.007812.042969-.011718.167969-.03125.335937-.078125.5-.121094.152343-.039062.300781-.070312.449219-.113281.164062-.050781.320312-.113281.480468-.171875.148438-.050782.296875-.097656.441406-.160156.152344-.0625.296876-.132813.441407-.203126.148437-.070312.300781-.136718.445312-.214843.140625-.078125.273438-.164063.410157-.242188.144531-.085937.289062-.167969.429687-.261719.148437-.101562.289063-.210937.433594-.320312.117187-.085938.238281-.167969.351562-.261719.253907-.210937.5-.429687.734375-.664062 32.082032-32.078125 75.113282-49.226563 120.664063-47.953125 10.140625-8.832032 4.015625-20.066406-4.734375-20.066406-24.277344 0-47.960938 4.710937-70.394532 14.003906-15.367187 6.363281-29.628906 14.664062-42.605468 24.78125v-65.410156h92.339844c8.074218-3.105469 9.332031-11.554688 5.023437-16.539063l-97.363281-112.65625v-172.003906l202.765625 351.203125c-7.890625-4.40625-16.128907-8.246094-24.703125-11.492188-17.542969 6.15625-7.691406 28.417969 9.359375 18.65625 0 0 41.53125 37.492188 41.53125 37.492188.082031.082031.167969.152344.253906.230468.210937.199219.425781.386719.652344.5625.109375.085938.222656.164063.335937.246094.226563.164063.460938.316406.699219.457032.097656.058593.191406.117187.292969.171874.691406.382813 1.421875.675782 2.171875.882813.097656.027344.195312.046875.292969.070313.285156.070312.574218.125.863281.167968.117187.019532.230469.035156.34375.050782.355469.042968.710937.066406 1.066406.070312.03125 0 .058594.003906.089844.003906.046875 0 .09375-.007812.144531-.007812.324219-.003906.648438-.027344.972656-.0625.132813-.015625.265625-.039063.402344-.058594.265625-.042969.527344-.09375.789062-.15625.117188-.027344.238282-.054688.355469-.085938.378907-.105468.753907-.226562 1.121094-.378906 0 0 .003906 0 .007813-.003906.371093-.152344.734374-.335938 1.085937-.53125.039063-.023438.074219-.035156.113281-.054688.066406-.042968.128906-.085937.195313-.128906.167969-.101562.335937-.207031.5-.320312.132812-.09375.261719-.1875.386719-.285156.125-.097657.25-.195313.375-.300782.152343-.128906.296874-.261718.441406-.398437.054687-.054688.117187-.101563.171875-.15625.039062-.039063.070312-.078125.105469-.117188.148437-.148437.289062-.304687.421874-.460937zm-331.539062-114.066406 67.9375-78.609376v78.609376zm155.875 0h-67.9375v-78.609376zm0 0"/><path d="m420.359375 379.859375-.3125-.074219c-5.390625-1.210937-10.738281 2.175782-11.949219 7.5625-1.214844 5.390625 2.171875 10.742188 7.5625 11.953125l.179688.039063c.761718.179687 1.519531.261718 2.269531.261718 4.546875 0 8.660156-3.121093 9.730469-7.738281 1.25-5.382812-2.097656-10.753906-7.480469-12.003906zm0 0"/><path d="m205.875 96.808594c1.578125.910156 3.296875 1.34375 5 1.34375 3.453125 0 6.808594-1.789063 8.664062-4.992188l.136719-.234375c2.765625-4.777343 1.132813-10.898437-3.648437-13.664062s-10.898438-1.132813-13.664063 3.648437l-.136719.234375c-2.765624 4.777344-1.132812 10.898438 3.648438 13.664063zm0 0"/></svg>