<svg width="80" height="82" viewBox="0 0 80 82" fill="none" xmlns="http://www.w3.org/2000/svg">
<g filter="url(#filter0_d)">
<path d="M40.0968 16.7963L74.1166 1.66211L51.1526 36.3359L51.0465 36.4962L51.1374 36.6679L70.0255 72.3143L40.0992 58.6218L40 58.5764L39.9007 58.6218L9.97462 72.3143L28.8625 36.6679L28.9535 36.4962L28.8473 36.3359L5.8833 1.66211L39.9031 16.7963L40 16.8394L40.0968 16.7963Z" stroke="#FF9800"/>
<path d="M40 16.5194L5.11426 1L28.6357 36.5155L9.34283 72.9264L40 58.8992L70.6571 72.9264L51.3643 36.5155L74.8857 1L40 16.5194Z" fill="#100B0B"/>
<path fill-rule="evenodd" clip-rule="evenodd" d="M35.776 43.031L40.0001 37.7132V18.0918L29.5876 37.7132L19.1749 57.3348C21.9367 54.3304 25.6823 52.6427 29.5876 52.6427C33.493 52.6427 37.2385 54.3304 40.0004 57.3348V48.3483H31.5519L35.776 43.031Z" fill="#FFBA4A"/>
<path fill-rule="evenodd" clip-rule="evenodd" d="M40.0001 37.7129L35.776 43.0306L31.5519 48.3479H40.0001V37.7129Z" fill="#FFBA4A"/>
<path fill-rule="evenodd" clip-rule="evenodd" d="M40 37.7132L44.2244 43.031L48.4485 48.3483H40V57.3348C42.7618 54.3304 46.5074 52.6427 50.4128 52.6427C54.318 52.6427 58.0634 54.3304 60.8257 57.3348L50.4128 37.7132L40.0003 18.0918V37.7132H40Z" fill="#FD4848"/>
<path fill-rule="evenodd" clip-rule="evenodd" d="M44.2245 43.0306L40 37.7129V48.3479H48.4485L44.2245 43.0306Z" fill="#FD4848"/>
<path d="M53.9137 52.1545L53.8872 52.1476C53.4309 52.0361 52.9781 52.348 52.8756 52.8441C52.7728 53.3406 53.0595 53.8335 53.5158 53.945L53.531 53.9486C53.5955 53.9652 53.6597 53.9727 53.7232 53.9727C54.1081 53.9727 54.4563 53.6852 54.5469 53.26C54.6527 52.7643 54.3693 52.2695 53.9137 52.1545Z" fill="black"/>
<path d="M35.7567 26.0858C35.8903 26.1696 36.0358 26.2095 36.1799 26.2095C36.4723 26.2095 36.7563 26.0447 36.9134 25.7497L36.9249 25.7282C37.1591 25.2881 37.0209 24.7244 36.6161 24.4697C36.2114 24.215 35.6935 24.3653 35.4594 24.8057L35.4478 24.8273C35.2137 25.2673 35.3519 25.831 35.7567 26.0858Z" fill="black"/>
<path d="M61.4685 57.9322C61.4754 57.9229 61.4828 57.9138 61.4896 57.9045C61.4992 57.8908 61.5087 57.8768 61.5177 57.8624C61.5251 57.8512 61.5325 57.8401 61.5393 57.8282C61.5467 57.816 61.5531 57.8031 61.5599 57.7905C61.5673 57.7764 61.5742 57.7628 61.5811 57.7483C61.5864 57.7372 61.5911 57.7257 61.5954 57.7142C61.6028 57.6984 61.6091 57.6821 61.6149 57.6659C61.6186 57.6551 61.6223 57.6437 61.6255 57.6325C61.6308 57.6159 61.6361 57.599 61.6403 57.5821C61.6435 57.5699 61.6461 57.5577 61.6487 57.5454C61.6519 57.5296 61.6556 57.5134 61.6583 57.4972C61.6604 57.4832 61.662 57.4688 61.6635 57.4544C61.6657 57.44 61.6672 57.4256 61.6688 57.4113C61.6699 57.3951 61.6704 57.3785 61.6709 57.3623C61.6709 57.3494 61.6715 57.3368 61.6715 57.3242C61.6715 57.3066 61.6704 57.2889 61.6688 57.2716C61.6683 57.2598 61.6683 57.2479 61.6667 57.2361C61.6651 57.2188 61.6625 57.2015 61.6598 57.1843C61.6583 57.172 61.6561 57.1594 61.654 57.1468C61.6509 57.1314 61.6472 57.1159 61.6435 57.1004C61.6398 57.0864 61.6366 57.072 61.6329 57.0579C61.6287 57.045 61.6244 57.032 61.6202 57.0191C61.6144 57.0026 61.6091 56.9864 61.6028 56.9702C61.5985 56.9594 61.5932 56.9486 61.5885 56.9378C61.5811 56.9205 61.5732 56.9033 61.5647 56.8863C61.5621 56.882 61.5605 56.8778 61.5584 56.8734L40.7331 17.6304C40.7308 17.6261 40.7278 17.6218 40.7251 17.6175C40.7109 17.5919 40.6961 17.5675 40.6798 17.5437C40.6742 17.5358 40.6693 17.5279 40.6637 17.5203C40.6432 17.4919 40.6213 17.4646 40.5982 17.439C40.5965 17.4376 40.5949 17.4361 40.5932 17.4343C40.5711 17.4106 40.5476 17.3887 40.5234 17.3678C40.5162 17.3616 40.5082 17.3556 40.501 17.3495C40.4801 17.3329 40.4586 17.3174 40.4362 17.3027C40.4295 17.2984 40.4233 17.294 40.4166 17.2897C40.3872 17.2714 40.3568 17.2548 40.3251 17.2408C40.3251 17.2404 40.3247 17.2404 40.3247 17.2404C40.2943 17.2267 40.2628 17.2152 40.2308 17.2056C40.2225 17.203 40.2146 17.2008 40.2063 17.1987C40.1812 17.1919 40.1554 17.1861 40.1296 17.1818C40.1203 17.1804 40.1117 17.1786 40.1025 17.1775C40.0691 17.1728 40.035 17.1699 40 17.1699C39.9653 17.1699 39.9312 17.1728 39.8974 17.1775C39.8886 17.1786 39.8796 17.1804 39.8707 17.1818C39.8445 17.1861 39.8191 17.1919 39.794 17.1987C39.7857 17.2008 39.7774 17.203 39.7695 17.2056C39.7374 17.2152 39.706 17.2264 39.6756 17.2404C39.6756 17.2404 39.6752 17.2404 39.6749 17.2408C39.6435 17.2548 39.6131 17.2718 39.5836 17.2897C39.577 17.294 39.5704 17.2984 39.5638 17.3027C39.5417 17.3174 39.5201 17.3329 39.4993 17.3495C39.4917 17.3556 39.4841 17.3616 39.4769 17.3678C39.4524 17.3887 39.4289 17.4109 39.4071 17.4343C39.4054 17.4361 39.4038 17.4376 39.4021 17.439C39.3787 17.4646 39.3571 17.4919 39.3366 17.5203C39.331 17.5279 39.3257 17.5358 39.3205 17.5437C39.3042 17.5675 39.289 17.5919 39.2751 17.6175C39.2725 17.6221 39.2695 17.6261 39.2669 17.6304L37.1505 21.6187C36.7811 22.3149 37.342 23.3176 38.4134 22.9229L39.1534 21.5281V37.3695L30.7704 47.9228C30.5224 48.6726 30.9939 49.2687 31.5518 49.2687H39.1534V55.2933C38.055 54.3615 36.8476 53.5971 35.5467 53.0106C33.6476 52.1547 31.6427 51.7209 29.5876 51.7209C27.532 51.7209 25.5272 52.1547 23.6284 53.0106C23.0633 53.265 22.5166 53.5542 21.9879 53.8752L35.6975 28.0405C35.9313 27.6002 35.7928 27.0368 35.388 26.7824C34.9829 26.5281 34.4651 26.6792 34.2313 27.1195L18.4417 56.8737C18.4394 56.8781 18.4378 56.8824 18.4358 56.8867C18.4271 56.9037 18.4192 56.9205 18.4116 56.9381C18.4066 56.949 18.402 56.9598 18.3978 56.9706C18.3911 56.9867 18.3858 57.0029 18.3802 57.0191C18.3759 57.032 18.3713 57.045 18.3676 57.0583C18.3637 57.0723 18.36 57.0864 18.3567 57.1004C18.3531 57.1163 18.3491 57.1317 18.3462 57.1472C18.3438 57.1598 18.3421 57.172 18.3402 57.1843C18.3375 57.2015 18.3352 57.2188 18.3336 57.2364C18.3323 57.2479 18.3319 57.2598 18.3309 57.2713C18.3299 57.289 18.3289 57.3066 18.3286 57.3245C18.3286 57.3368 18.3289 57.3494 18.3293 57.3616C18.3299 57.3785 18.3303 57.3951 18.3316 57.4116C18.3326 57.4256 18.3346 57.44 18.3362 57.4541C18.3379 57.4684 18.3395 57.4832 18.3418 57.4976C18.3445 57.5134 18.3481 57.5293 18.3514 57.5451C18.3541 57.5573 18.3567 57.5699 18.3597 57.5825C18.3643 57.599 18.3693 57.6156 18.3746 57.6322C18.3782 57.6437 18.3815 57.6548 18.3855 57.6663C18.3911 57.6821 18.3977 57.698 18.404 57.7135C18.409 57.7253 18.4136 57.7372 18.4189 57.7483C18.4255 57.7624 18.4328 57.7761 18.4397 57.7898C18.4466 57.8027 18.4536 57.816 18.4609 57.8286C18.4675 57.8397 18.4748 57.8509 18.4821 57.862C18.4913 57.8764 18.5006 57.8908 18.5105 57.9045C18.5174 57.9138 18.5244 57.9229 18.5313 57.9318C18.5429 57.9466 18.5548 57.961 18.5674 57.975C18.5703 57.9782 18.573 57.9822 18.576 57.9854C18.5806 57.9905 18.5859 57.9948 18.5905 57.9998C18.6027 58.0124 18.615 58.0246 18.6282 58.0365C18.6385 58.0462 18.6494 58.0552 18.66 58.0642C18.6705 58.0732 18.6814 58.0819 18.6924 58.0901C18.7066 58.1009 18.7208 58.1106 18.7353 58.1204C18.741 58.124 18.7459 58.1283 18.7516 58.1318C18.7545 58.1337 18.7575 58.1348 18.7605 58.1369C18.7909 58.1552 18.8213 58.1721 18.8531 58.1862C18.8531 58.1862 18.8534 58.1866 18.8537 58.1866C18.8848 58.2002 18.9162 58.2117 18.9483 58.2214C18.9586 58.2243 18.9685 58.2265 18.9787 58.2294C19.0009 58.2351 19.0231 58.2398 19.0455 58.2434C19.0568 58.2455 19.068 58.2473 19.0792 58.2488C19.1074 58.2524 19.1352 58.2542 19.1632 58.2549C19.1669 58.2549 19.1705 58.2556 19.1739 58.2556C19.1758 58.2556 19.1778 58.2553 19.1795 58.2553C19.2105 58.2549 19.2413 58.2524 19.2721 58.2488C19.2813 58.2473 19.2906 58.2459 19.2998 58.2441C19.325 58.2402 19.3498 58.2347 19.3746 58.2283C19.3825 58.2261 19.3904 58.2243 19.3983 58.2221C19.4619 58.2031 19.524 58.1761 19.5829 58.1405C19.5912 58.1358 19.5988 58.1304 19.6067 58.1254C19.6272 58.1121 19.647 58.0977 19.6669 58.0826C19.6762 58.075 19.6857 58.0678 19.6947 58.0603C19.7138 58.0437 19.7323 58.0261 19.7505 58.0077C19.7575 58.0009 19.7647 57.9944 19.7713 57.9873L22.0521 55.752C28.2523 52.0364 35.0286 53.2283 39.4011 57.9854C39.4209 58.007 39.4414 58.0272 39.4633 58.0466C39.4732 58.0553 39.4838 58.0631 39.494 58.0714C39.5056 58.0812 39.5172 58.0912 39.5298 58.1002C39.5417 58.1089 39.5546 58.1167 39.5671 58.1247C39.578 58.1322 39.5893 58.1398 39.6005 58.1466C39.6134 58.1538 39.6267 58.1603 39.6396 58.1667C39.6514 58.1729 39.6633 58.1797 39.6756 58.1851C39.6885 58.1909 39.7014 58.1955 39.7143 58.2006C39.7275 58.2056 39.7404 58.211 39.7536 58.2153C39.7668 58.2196 39.7797 58.2229 39.793 58.2265C39.8065 58.2301 39.8201 58.2344 39.834 58.2372C39.8489 58.2405 39.8641 58.2427 39.8789 58.2448C39.8915 58.2466 39.9034 58.2495 39.916 58.2506C39.9438 58.2535 39.9715 58.2553 39.9997 58.2553C40.0274 58.2553 40.0555 58.2538 40.0833 58.2506C40.0959 58.2491 40.1081 58.2466 40.1207 58.2448C40.1342 58.2427 40.1478 58.2412 40.1614 58.2384C40.1627 58.238 40.1637 58.2376 40.165 58.2372C40.1792 58.2344 40.1934 58.2301 40.2073 58.2261C40.2202 58.2225 40.2328 58.2196 40.2454 58.2157C40.2593 58.211 40.2725 58.2052 40.286 58.1999C40.2986 58.1952 40.3112 58.1909 40.3234 58.1851C40.3363 58.1793 40.3485 58.1729 40.3607 58.1664C40.3733 58.1599 40.3862 58.1538 40.3984 58.1466C40.4104 58.1394 40.4216 58.1315 40.4332 58.1243C40.4454 58.1164 40.4576 58.1089 40.4695 58.1002C40.4821 58.0908 40.494 58.0808 40.5063 58.0707C40.5162 58.0628 40.5264 58.0553 40.536 58.0466C40.5575 58.0272 40.5784 58.007 40.5982 57.9854C43.314 55.0311 46.9568 53.4517 50.8129 53.569C51.6713 52.7556 51.1528 51.7209 50.4121 51.7209C48.3569 51.7209 46.352 52.1547 44.4529 53.0106C43.152 53.5967 41.9447 54.3612 40.8462 55.293V49.2687H48.6631C49.3466 48.9827 49.4531 48.2046 49.0884 47.7455L40.8462 37.3699V21.5285L58.0111 53.874C57.343 53.4683 56.6458 53.1146 55.9201 52.8156C54.4347 53.3826 55.2687 55.4329 56.7124 54.5338L60.2279 57.9868C60.2348 57.9944 60.2422 58.0009 60.2496 58.0081C60.2671 58.0264 60.2856 58.0437 60.3046 58.0599C60.3141 58.0678 60.3236 58.075 60.3331 58.0826C60.3522 58.0977 60.3722 58.1117 60.3923 58.1247C60.4008 58.13 60.4087 58.1355 60.4172 58.1405C60.4758 58.1758 60.5377 58.2027 60.6011 58.2218C60.609 58.2243 60.6175 58.2261 60.626 58.2283C60.6497 58.2347 60.6746 58.2398 60.6989 58.2437C60.7089 58.2455 60.7185 58.247 60.728 58.2484C60.7581 58.2524 60.7882 58.2546 60.8184 58.2549C60.821 58.2549 60.8231 58.2553 60.8258 58.2553C60.83 58.2553 60.8337 58.2546 60.8379 58.2546C60.8654 58.2542 60.8929 58.252 60.9204 58.2488C60.9315 58.2473 60.9431 58.2452 60.9542 58.2434C60.9769 58.2395 60.9991 58.2347 61.0213 58.229C61.0314 58.2265 61.0414 58.2239 61.0515 58.2211C61.0832 58.2113 61.1149 58.2002 61.1461 58.1862C61.1461 58.1862 61.1466 58.1862 61.1471 58.1858C61.1783 58.1718 61.209 58.1549 61.2386 58.1369C61.2423 58.1348 61.2449 58.1337 61.2486 58.1318C61.2539 58.1279 61.2592 58.124 61.265 58.12C61.2793 58.1106 61.2935 58.1009 61.3073 58.0905C61.3184 58.0819 61.3295 58.0732 61.3401 58.0642C61.3506 58.0552 61.3612 58.0462 61.3718 58.0365C61.3845 58.0246 61.3971 58.0124 61.4093 57.9998C61.4135 57.9948 61.4188 57.9905 61.4236 57.9854C61.4267 57.9818 61.4294 57.9783 61.4326 57.9747C61.4452 57.961 61.4569 57.9465 61.4685 57.9322ZM33.4023 47.4267L39.1534 40.1868V47.4267H33.4023ZM46.5977 47.4267H40.8465V40.1868L46.5977 47.4267Z" fill="black"/>
</g>
<defs>
<filter id="filter0_d" x="0.519287" y="0.507812" width="78.9614" height="80.8739" filterUnits="userSpaceOnUse" color-interpolation-filters="sRGB">
<feFlood flood-opacity="0" result="BackgroundImageFix"/>
<feColorMatrix in="SourceAlpha" type="matrix" values="0 0 0 0 0 0 0 0 0 0 0 0 0 0 0 0 0 0 127 0"/>
<feOffset dy="4"/>
<feGaussianBlur stdDeviation="2"/>
<feColorMatrix type="matrix" values="0 0 0 0 0 0 0 0 0 0 0 0 0 0 0 0 0 0 0.25 0"/>
<feBlend mode="normal" in2="BackgroundImageFix" result="effect1_dropShadow"/>
<feBlend mode="normal" in="SourceGraphic" in2="effect1_dropShadow" result="shape"/>
</filter>
</defs>
</svg>
